<?xml version="1.0" encoding="UTF-8" standalone="no"?><!DOCTYPE svg PUBLIC "-//W3C//DTD SVG 1.1//EN" "http://www.w3.org/Graphics/SVG/1.1/DTD/svg11.dtd"><svg width="100%" height="100%" viewBox="0 0 4267 4267" version="1.1" xmlns="http://www.w3.org/2000/svg" xmlns:xlink="http://www.w3.org/1999/xlink" xml:space="preserve" xmlns:serif="http://www.serif.com/" style="fill-rule:evenodd;clip-rule:evenodd;stroke-linejoin:round;stroke-miterlimit:2;"><path d="M2661.41,3779.09c-102.745,33.137 -206.46,52.695 -312.02,65.019c-75.112,8.769 -150.268,14.062 -225.731,15.897c-116.336,2.829 -230.846,-11.312 -343.821,-38.756c-112.687,-27.375 -223.646,-60.863 -327.616,-112.425c-78.17,-38.767 -157.199,-77.534 -228.045,-128.89c-90.744,-65.778 -181.3,-130.921 -261.175,-211.901c-92.15,-93.425 -174.162,-193.887 -250.386,-299.639c-55.455,-76.938 -92.423,-164.09 -128.474,-251.334c-38.162,-92.35 -70.559,-186.644 -91.649,-284.433c-18.835,-87.33 -28.432,-175.973 -36.142,-264.933c-6.793,-78.381 -4.489,-156.827 -2.652,-235.098c1.605,-68.418 14.264,-136.2 29.821,-202.891c17.445,-74.784 37.302,-149.018 56.881,-223.288c16.927,-64.213 49.18,-122.133 78.245,-181.081c47.253,-95.837 100.063,-188.237 166.126,-273.182c76.948,-98.941 159.755,-192.287 254.834,-273.536c61.514,-52.565 129.131,-97.855 197.38,-141.93c69.525,-44.901 141.94,-84.375 215.811,-121.073c95.868,-47.628 196.935,-81.749 300.61,-108.312c90.779,-23.26 183.087,-35.312 276.396,-42.831c94.462,-7.612 189.339,-7.598 282.698,2.51c127.845,13.842 254.121,39.915 375.227,86.775c75.128,29.07 149.112,60.459 220.863,96.873c99.172,50.33 192.417,110.248 281.298,177.133c90.289,67.945 169.732,147.193 242.874,232.786c103.206,120.775 191.745,250.927 258.206,396.212c65.27,142.681 111.272,290.505 135.806,445.291c18.282,115.334 25.711,231.812 19.061,347.863c-7.548,131.702 -22.157,262.907 -67.261,389.17c-28.196,78.93 -52.484,159.316 -85.426,236.495c-54.233,127.063 -123.636,245.316 -214.278,349.88c-54.513,62.886 -114.637,120.714 -173.482,179.615c-79.102,79.18 -171.574,140.186 -267.07,197.124c-67.32,40.138 -135.306,79.137 -205.914,113.219c-54.444,26.279 -112.289,43.858 -170.995,63.671m213.679,-2989.33c-48.517,-23.975 -95.785,-51.03 -145.801,-71.31c-118.351,-47.987 -240.161,-85.523 -367.037,-103.381c-56.776,-7.992 -114.199,-16.634 -171.253,-16.152c-80.174,0.678 -160.589,3.872 -240.444,14.825c-72.77,9.981 -145.113,21.603 -215.326,43.449c-34.356,10.69 -67.892,24.047 -101.685,36.507c-86.626,31.94 -171.962,66.361 -251.212,114.873c-46.799,28.647 -91.208,60.738 -137.562,89.92c-48.25,30.375 -93.668,64.619 -135.585,102.992c-53.709,49.166 -101.442,103.913 -149.159,159.125c-92.113,106.582 -168.183,222.549 -222.834,351.819c-56.716,134.155 -105.677,270.979 -124.705,416.834c-9.138,70.043 -16.75,140.106 -19.106,210.65c-1.248,37.388 0.803,74.752 3.299,112.183c4.745,71.161 11.079,142.081 25.968,211.821c27.221,127.497 61.825,252.615 118.308,371.033c57.209,119.941 133.067,227.44 217.101,329.254c39.2,47.495 81.442,93.282 127.228,134.356c71.664,64.29 148.702,122.102 230.356,173.838c98.828,62.618 202.969,114.184 311.391,157.377c63.191,25.174 129.278,40.406 195.707,54.622c71.886,15.384 144.597,26.21 217.638,29.827c138.71,6.868 277.009,-1.25 413.568,-28.423c130.412,-25.949 255.98,-66.713 374.68,-127.352c88.673,-45.3 167.715,-105.685 250.879,-159.652c59.764,-38.78 113.15,-84.942 165.2,-132.805c54.274,-49.909 98.573,-108.823 145.672,-165.317c56.823,-68.155 103.935,-142.467 145.05,-220.223c34.622,-65.477 58.421,-136.002 82.768,-206.273c39.472,-113.931 63.854,-230.882 74.871,-350.066c7.741,-83.745 11.997,-168.236 6.161,-252.831c-5.673,-82.24 -13.809,-163.992 -32.452,-244.374c-31.322,-135.053 -83.075,-262.606 -143.42,-386.935c-63.507,-130.842 -158.3,-238.99 -253.296,-346.723c-60.336,-68.427 -129.908,-127.405 -203.488,-180.901c-60.429,-43.936 -121.344,-87.747 -191.48,-122.587Z" style="fill-rule:nonzero;"/><path d="M3026.15,2342.83c-102.986,99.246 -210.151,191.572 -316.363,285.038c-61.931,54.5 -126.278,106.247 -186.423,162.831c-22.164,20.852 -46.4,39.715 -70.968,57.746c-33.351,24.475 -74.667,26.358 -98.897,6.552c-30.421,-24.868 -40.881,-69.356 -25.963,-107.574c17.112,-43.837 48.646,-77.648 80.062,-110.523c85.799,-89.785 168.393,-182.628 256.784,-269.948c5.47,-5.404 15.444,-10.391 10.586,-20.281c-4.267,-8.687 -14.142,-7.498 -22.393,-7.504c-113.88,-0.096 -227.759,-0.069 -341.639,-0.128c-118.735,-0.061 -237.565,2.714 -356.177,-1.158c-102.059,-3.333 -204.027,-2.039 -306.028,-2.751c-121.228,-0.846 -242.467,-0.533 -363.699,-0.052c-43.878,0.173 -87.095,-4.823 -129.861,-13.594c-77.368,-15.866 -113.165,-105.968 -67.979,-170.859c11.979,-17.203 30.55,-25.589 50.227,-31.234c41.357,-11.865 83.902,-8.443 126.079,-9.482c100.394,-2.474 200.803,4.185 301.245,-1.58c46.37,-2.662 93.001,-0.422 139.5,-1.237c272.086,-4.764 544.201,-4.056 816.307,-5.403c54.705,-0.271 109.554,-2.762 164.359,-3.379c6.932,-0.078 13.911,-0.272 20.923,-6.966c-4.64,-19.014 -20.45,-30.979 -34.321,-41.557c-46.191,-35.222 -84.668,-78.116 -123.809,-120.242c-47.706,-51.344 -100.355,-97.792 -146.539,-150.628c-20.097,-22.992 -40.786,-45.341 -58.154,-70.586c-25.648,-37.281 -24.977,-77.694 -0.344,-107.272c26.541,-31.869 82.355,-27.569 111.499,-11.172c60.348,33.952 109.769,82.269 164.546,123.53c84.87,63.927 161.984,137.04 243.385,205.065c89.943,75.162 180.568,149.478 262.576,233.539c27.387,28.072 30.434,50.304 10.606,83.97c-12.17,20.665 -28.892,37.619 -48.016,51.428c-22.14,15.987 -41.35,34.794 -61.111,55.411Z" style="fill-rule:nonzero;"/></svg>