<?xml version="1.0" encoding="UTF-8" standalone="no"?><!DOCTYPE svg PUBLIC "-//W3C//DTD SVG 1.1//EN" "http://www.w3.org/Graphics/SVG/1.1/DTD/svg11.dtd"><svg width="100%" height="100%" viewBox="0 0 4267 4267" version="1.1" xmlns="http://www.w3.org/2000/svg" xmlns:xlink="http://www.w3.org/1999/xlink" xml:space="preserve" xmlns:serif="http://www.serif.com/" style="fill-rule:evenodd;clip-rule:evenodd;stroke-linejoin:round;stroke-miterlimit:2;"><path d="M1687.69,3754.89c-147.759,-44.372 -286.963,-105.088 -417.58,-183.322c-111.235,-66.625 -216.698,-141.246 -310.345,-233.069c-107.252,-105.162 -202.599,-219.396 -281.813,-346.088c-68.024,-108.795 -122.856,-224.76 -163.22,-347.461c-33.216,-100.97 -57.186,-203.794 -73.203,-308.525c-6.048,-39.549 -5.845,-80.016 -9.708,-119.947c-5.826,-60.232 -7.01,-120.828 -3.141,-180.827c8.542,-132.463 20.502,-264.529 65.176,-391.495c24.133,-68.588 46.222,-137.896 71.572,-206.117c14.837,-39.927 38.365,-75.554 53.999,-114.709c41.04,-102.782 107.039,-189.529 176.54,-273.195c44.614,-53.706 96.495,-101.517 144.848,-152.179c102.466,-107.356 225.734,-185.252 352.876,-258.439c59.541,-34.273 119.069,-68.786 182.774,-94.582c102.272,-41.413 207.276,-75.154 315.97,-94.775c65.901,-11.896 132.902,-17.633 199.338,-26.652c51.565,-6.999 103.481,-6.564 155.287,-8.337c151.854,-5.197 299.13,22.352 444.028,64.498c81.219,23.624 162.199,49.668 237.178,88.876c74.252,38.828 150.725,74.793 218.856,124.056c83.004,60.017 169.936,115.142 241.082,190.616c53.714,56.981 111.638,109.953 160.305,171.71c77.789,98.713 154.772,197.895 205.177,314.437c52.593,121.6 101.601,244.542 129.284,374.634c18.144,85.263 27.798,171.819 35.508,258.649c7.39,83.221 6.387,166.676 2.173,249.631c-4.455,87.696 -22.373,174.106 -45.592,259.099c-16.601,60.766 -30.227,122.442 -49.252,182.421c-19.732,62.207 -50.663,120.055 -81.01,177.697c-15.507,29.453 -30.185,59.353 -46.14,88.546c-49.871,91.243 -115.737,171.092 -180.831,251.45c-53.932,66.579 -113.991,127.808 -179.756,181.974c-97.936,80.663 -203.122,151.322 -314.615,213.01c-85.955,47.557 -174.368,88.594 -266.662,121.233c-75.774,26.796 -153.726,46.155 -232.734,61.4c-144.079,27.802 -289.569,28.488 -435.255,22.815c-53.973,-2.101 -106.705,-15.934 -159.955,-24.682c-47.142,-7.745 -93.824,-17.821 -141.159,-32.351m-777.13,-2613.13c-8.876,11.517 -17.135,23.577 -26.729,34.461c-58.684,66.575 -106.263,141.201 -145.125,220.049c-67.001,135.94 -113.34,279.389 -139.162,429.279c-11.179,64.887 -20.57,130.033 -22.372,195.622c-1.804,65.646 -8.363,131.427 -0.831,197.205c6.373,55.646 9.517,111.796 18.757,166.941c9.007,53.753 23.831,106.482 39.515,158.893c37.957,126.845 91.363,247.114 156.569,361.814c50.207,88.316 118.194,164.034 183.499,241.401c70.673,83.726 152.188,155.788 240.505,219.831c75.748,54.928 155.31,103.647 239.279,146.13c90.344,45.709 184.397,79.976 280.748,108.603c77.625,23.063 157.459,37.263 237.916,46.528c40.461,4.659 81.54,9.75 121.951,7.541c46.982,-2.567 94.048,-1.19 141.071,-5.858c55.035,-5.465 110.104,-10.549 164.545,-19.952c70.998,-12.263 140.324,-30.534 208.026,-56.372c99.825,-38.097 200.571,-73.616 291.082,-131.969c47.193,-30.425 94.35,-60.917 141.047,-92.093c47.315,-31.587 93.073,-65.399 134.015,-105.056c48.284,-46.769 93.411,-96.307 137.534,-147.249c95.331,-110.065 174.023,-229.869 229.548,-364.216c54.539,-131.965 102.345,-266.061 120.745,-409.073c8.305,-64.548 15.977,-129.094 18.813,-194.013c4.03,-92.298 -2.892,-184.573 -17.655,-275.346c-25.301,-155.574 -66.975,-306.841 -136.575,-449.448c-43.417,-88.961 -99.36,-169.605 -158.03,-248.804c-81.925,-110.59 -177.915,-207.178 -287.866,-289.527c-85.527,-64.056 -175.326,-121.126 -271.53,-168.91c-100.39,-49.864 -202.645,-92.653 -312.113,-117.612c-106.938,-24.383 -214.868,-39.148 -324.774,-40.892c-125.225,-1.988 -248.999,8.906 -371.624,33.998c-113.855,23.296 -223.602,59.435 -328.479,109.158c-113.365,53.748 -213.64,129.118 -315.96,200.342c-93.691,65.217 -175.193,144.883 -246.34,238.594Z" style="fill-rule:nonzero;"/><path d="M2475,2168.3c-244.32,7.03 -486.634,2.013 -728.88,5.07c-54.702,0.69 -109.578,1.795 -164.331,4.121c-6.659,0.283 -14.081,-1.867 -21.014,6.685c20.167,18.624 39.269,38.507 60.655,55.518c37.182,29.575 67.423,65.85 100.353,99.532c52.353,53.548 104.648,107.154 156.687,161.007c21.227,21.965 40.666,45.442 57.491,71.076c21.272,32.408 21.238,68.032 -0.984,98.553c-20.629,28.332 -45.101,33.451 -88.041,24.708c-32.412,-6.601 -58.827,-27.46 -84.383,-47.805c-73.832,-58.776 -149.371,-115.637 -220.377,-177.672c-69.475,-60.698 -139.713,-120.459 -209.883,-180.323c-60.684,-51.771 -120.739,-104.091 -177.627,-160.221c-38.509,-37.996 -33.184,-75.497 0.4,-110.494c35.063,-36.538 75.819,-66.897 112.172,-102.249c50.173,-48.792 100.054,-98.02 153.781,-143.121c47.284,-39.692 93.522,-80.635 140.019,-121.257c62.64,-54.726 124.862,-109.931 187.727,-164.396c24.087,-20.869 48.627,-41.411 74.462,-60.016c26.487,-19.074 56.359,-28.28 88.052,-12.951c32.031,15.492 41.842,46.248 43.31,77.824c1.191,25.633 -9.996,49.985 -25.499,71.147c-42.796,58.415 -93.997,109.325 -143.808,161.541c-61.793,64.775 -121.32,131.705 -185.04,194.656c-2.264,2.237 -3.323,5.693 -4.803,8.329c7.046,11.579 17.643,8.293 26.849,8.299c231.232,0.17 462.505,-2.35 693.678,1.357c106.85,1.713 213.685,1.891 320.52,2.753c121.227,0.979 242.468,0.353 363.702,0.173c41.058,-0.061 81.572,5.086 121.428,13.938c77.956,17.315 112.553,108.041 64.57,171.477c-24.246,32.056 -62.551,37.265 -99.57,38.134c-68.591,1.609 -137.244,0.377 -205.867,0.9c-134.557,1.027 -269.111,2.447 -405.749,3.707Z" style="fill-rule:nonzero;"/></svg>